<svg width="22" height="23" viewBox="0 0 22 23" fill="none" xmlns="http://www.w3.org/2000/svg">
<path d="M14 6.5H8V5H14V6.5ZM11.75 20H3.5V17H5V15.5H3.5V11.75H5V10.25H3.5V6.5H5V5H3.5V2H17V13.25H18.5V2C18.5 1.175 17.825 0.5 17 0.5H3.5C2.675 0.5 2 1.175 2 2V5H0.5V6.5H2V10.25H0.5V11.75H2V15.5H0.5V17H2V20C2 20.825 2.675 21.5 3.5 21.5H11.75V20ZM14 10.25H8V11.75H14V10.25ZM16.55 17.225L13.775 17.6L15.8 19.55L15.275 22.25L17.825 20.975L20.225 22.25L19.7 19.55L21.725 17.6L19.025 17.225L17.75 14.75L16.55 17.225Z" fill="#EE8502"/>
</svg>
