<svg width="20" height="22" viewBox="0 0 20 22" fill="none" xmlns="http://www.w3.org/2000/svg">
<path d="M9 1C4.582 1 1 4.545 1 8.919C1 10.412 1.417 11.809 2.143 13M12.5 10V12M15.5 10V12M12.5 2V4M15.5 2V4M11 5.5H9M11 8.5H9M19 5.5H17M19 8.5H17M12 18L11.87 18.647C11.73 19.354 11.659 19.707 11.5 19.987C11.255 20.4186 10.8583 20.7436 10.387 20.899C10.082 21 9.72 21 9 21C8.28 21 7.918 21 7.613 20.9C7.14154 20.7444 6.74482 20.4189 6.5 19.987C6.341 19.707 6.27 19.354 6.13 18.647L6 18M15 4H13C12.057 4 11.586 4 11.293 4.293C11 4.586 11 5.057 11 6V8C11 8.943 11 9.414 11.293 9.707C11.586 10 12.057 10 13 10H15C15.943 10 16.414 10 16.707 9.707C17 9.414 17 8.943 17 8V6C17 5.057 17 4.586 16.707 4.293C16.414 4 15.943 4 15 4ZM4.383 16.098C4.291 15.822 4.245 15.683 4.25 15.571C4.25566 15.4552 4.29475 15.3435 4.36254 15.2494C4.43033 15.1554 4.52393 15.083 4.632 15.041C4.736 15 4.882 15 5.172 15H12.828C13.119 15 13.264 15 13.368 15.04C13.4762 15.0821 13.5699 15.1546 13.6377 15.2489C13.7055 15.3431 13.7445 15.455 13.75 15.571C13.755 15.683 13.709 15.821 13.617 16.098C13.447 16.609 13.362 16.865 13.231 17.072C12.957 17.5046 12.5275 17.8156 12.031 17.941C11.793 18 11.525 18 10.988 18H7.012C6.475 18 6.206 18 5.969 17.94C5.47266 17.8149 5.04319 17.5042 4.769 17.072C4.638 16.865 4.553 16.609 4.383 16.098Z" stroke="#EE8502" stroke-width="1.5" stroke-linecap="round" stroke-linejoin="round"/>
</svg>
