<svg width="24" height="24" viewBox="0 0 24 24" fill="none" xmlns="http://www.w3.org/2000/svg">
<g clip-path="url(#clip0_771_47)">
<path d="M16.1775 20.8125C14.8725 21.4331 13.4451 21.7534 12 21.75C6.62402 21.75 2.25002 17.376 2.25002 12C2.25002 9.69375 3.04277 7.51575 4.50002 5.769V7.5H6.00002V3H1.50002V4.5H3.63152C1.77195 6.55479 0.744641 9.22869 0.750021 12C0.750021 18.2032 5.79677 23.25 12 23.25C13.6682 23.2535 15.316 22.8834 16.8225 22.167L16.1775 20.8125Z" fill="#EE8502"/>
<path d="M15.75 6.75C13.38 6.75 11.4368 8.59275 11.2665 10.92C10.442 10.1676 9.36618 9.75038 8.25 9.75H5.25V12.75C5.25 15.2318 7.269 17.25 9.75 17.25H11.25V20.25H12.75V14.25H14.25C16.731 14.25 18.75 12.2318 18.75 9.75V6.75H15.75ZM9.75 15.75C8.0955 15.75 6.75 14.4045 6.75 12.75V11.25H8.25C9.9045 11.25 11.25 12.5955 11.25 14.25V14.6895L9.53025 12.9697L8.46975 14.0303L10.1895 15.75H9.75ZM17.25 9.75C17.25 11.4045 15.9045 12.75 14.25 12.75H13.8105L15.5303 11.0302L14.4697 9.96975L12.75 11.6895V11.25C12.75 9.5955 14.0955 8.25 15.75 8.25H17.25V9.75Z" fill="#EE8502"/>
<path d="M23.25 12C23.25 5.79677 18.2032 0.750024 12 0.750024C10.3318 0.746551 8.68401 1.1166 7.17749 1.83302L7.82249 3.18752C9.12751 2.56697 10.555 2.24663 12 2.25002C17.376 2.25002 21.75 6.62402 21.75 12C21.75 14.3063 20.9572 16.4843 19.5 18.231V16.5H18V21H22.5V19.5H20.3685C22.2281 17.4452 23.2554 14.7713 23.25 12Z" fill="#EE8502"/>
</g>
<defs>
<clipPath id="clip0_771_47">
<rect width="24" height="24" fill="white"/>
</clipPath>
</defs>
</svg>
