<svg width="28" height="28" viewBox="0 0 28 28" fill="none" xmlns="http://www.w3.org/2000/svg">
<path d="M14 13.83C15.7425 13.83 17.163 12.2775 17.163 10.3885C17.163 8.52099 15.75 7.04199 14 7.04199C12.265 7.04199 10.837 8.54299 10.837 10.403C10.844 12.285 12.2645 13.83 14 13.83ZM5.565 13.9905C7.073 13.9905 8.3105 12.6355 8.3105 10.9735C8.3105 9.34849 7.088 8.03749 5.565 8.03749C4.0565 8.03749 2.8115 9.36999 2.819 10.988C2.8265 12.643 4.0565 13.9905 5.565 13.9905ZM22.4425 13.9905C23.9435 13.9905 25.181 12.643 25.181 10.988C25.1885 9.36999 23.9435 8.03749 22.4425 8.03749C20.9125 8.03749 19.6895 9.34799 19.6895 10.9735C19.6895 12.6355 20.927 13.9905 22.4425 13.9905ZM14 12.724C12.931 12.724 12.0155 11.699 12.0155 10.403C12.0155 9.12899 12.9165 8.14799 14.0005 8.14799C15.091 8.14799 15.9845 9.11449 15.9845 10.388C15.9845 11.6845 15.0835 12.724 14 12.724ZM5.565 12.9C4.6715 12.9 3.91 12.043 3.91 10.9885C3.91 9.95649 4.664 9.12849 5.565 9.12849C6.4875 9.12849 7.227 9.94149 7.227 10.974C7.227 12.043 6.4655 12.9 5.565 12.9ZM22.4425 12.9C21.5345 12.9 20.773 12.043 20.773 10.974C20.773 9.94149 21.5125 9.12899 22.4425 9.12899C23.343 9.12899 24.09 9.95649 24.09 10.989C24.09 12.043 23.3355 12.9 22.4425 12.9ZM1.4935 20.705H7.2415C6.89 20.5075 6.619 20.068 6.6705 19.6215H1.3105C1.164 19.6215 1.091 19.563 1.091 19.424C1.091 17.608 3.163 15.909 5.5575 15.909C6.48 15.909 7.3075 16.129 8.0175 16.546C8.25295 16.2474 8.53189 15.9858 8.845 15.77C7.9005 15.1475 6.7655 14.8255 5.5575 14.8255C2.4895 14.8255 0 17.0515 0 19.49C0 20.3025 0.498 20.705 1.4935 20.705ZM26.5135 20.705C27.502 20.705 28 20.3025 28 19.49C28 17.0515 25.51 14.8255 22.4425 14.8255C21.2345 14.8255 20.1065 15.1475 19.155 15.7705C19.4845 15.997 19.755 16.2535 19.99 16.546C20.6925 16.129 21.527 15.909 22.4425 15.909C24.837 15.909 26.909 17.608 26.909 19.424C26.909 19.563 26.843 19.6215 26.6965 19.6215H21.3365C21.3805 20.068 21.117 20.5075 20.7655 20.705H26.5135ZM9.4015 20.705H18.5985C19.8135 20.705 20.3925 20.339 20.3925 19.5335C20.3925 17.615 17.9685 14.84 14 14.84C10.024 14.84 7.6 17.615 7.6 19.5335C7.6 20.339 8.179 20.705 9.4015 20.705ZM9.05 19.6C8.86 19.6 8.7795 19.5485 8.7795 19.395C8.7795 18.1935 10.6395 15.946 14 15.946C17.3535 15.946 19.2135 18.1935 19.2135 19.3945C19.2135 19.5485 19.14 19.5995 18.95 19.5995L9.05 19.6Z" fill="#EE8502"/>
</svg>
